# xmcd
#
# Track frame offsets:
#	150
#	19375
#	36957
#	54532
#	69925
#	84760
#	102007
#	118917
#	133862
#	151932
#	171367
#	187750
#	204737
#	225634
#	239295
#
# Disc length: 3471 seconds
#
# Revision: 1
# Processed by: cddbd v1.5.2PL0 Copyright (c) Steve Scherf et al.
# Submitted via: EasyCDDAExtractor 15.3.0.1
#
DISCID=c30d8d0f
DTITLE=Lourdes Robles - Latin Stars
DYEAR=1997
DGENRE=Latin
TTITLE0=Abrazame Fuerte
TTITLE1=Sola
TTITLE2=Hoy Yo No Quiero Estar Sola
TTITLE3=Lo Amo
TTITLE4=Desconocida
TTITLE5=Loca
TTITLE6=Confio En Ti
TTITLE7=Es El
TTITLE8=Amaneciendo En Ti
TTITLE9=Que Lastima
TTITLE10=Soñando Contigo
TTITLE11=Gracias A Tu Amor
TTITLE12=Concierto Para Dos
TTITLE13=Miedo
TTITLE14=Debil Del Alma
EXTD=
EXTT0=
EXTT1=
EXTT2=
EXTT3=
EXTT4=
EXTT5=
EXTT6=
EXTT7=
EXTT8=
EXTT9=
EXTT10=
EXTT11=
EXTT12=
EXTT13=
EXTT14=
PLAYORDER=
